<svg width="40" height="40" viewBox="0 0 40 40" fill="none" xmlns="http://www.w3.org/2000/svg">
<path d="M32.6666 20.1975L33.1004 21.0985L34.9717 20.1975L33.1004 19.2965L32.6666 20.1975ZM7.33325 32.3951L6.39991 32.0361L5.49444 34.3903L7.76707 33.2961L7.33325 32.3951ZM12.0246 20.1975L12.958 20.5565L13.096 20.1975L12.958 19.8386L12.0246 20.1975ZM7.33325 8L7.76707 7.099L5.49444 6.00477L6.39991 8.35898L7.33325 8ZM32.2328 19.2965L6.89944 31.4941L7.76707 33.2961L33.1004 21.0985L32.2328 19.2965ZM8.2666 32.754L12.958 20.5565L11.0913 19.8386L6.39991 32.0361L8.2666 32.754ZM12.958 19.8386L8.2666 7.64102L6.39991 8.35898L11.0913 20.5565L12.958 19.8386ZM6.89944 8.901L32.2328 21.0985L33.1004 19.2965L7.76707 7.099L6.89944 8.901Z" fill="black"/>
<path d="M18.7899 19.1978L12.0244 19.1978L12.0244 21.1978L18.7899 21.1978L18.7899 19.1978Z" fill="black"/>
</svg>
